<svg width="35" height="35" viewBox="0 0 35 35" fill="none" xmlns="http://www.w3.org/2000/svg">
<circle cx="17.5" cy="17.5" r="17.5" fill="white"/>
<path d="M4.43066 15.1758C4.43066 14.6543 4.53027 14.165 4.72949 13.708C4.92871 13.251 5.19824 12.8525 5.53809 12.5127C5.88379 12.167 6.28516 11.8945 6.74219 11.6953C7.19922 11.4961 7.68848 11.3965 8.20996 11.3965H13.9932V13.9189H8.20996C8.03418 13.9189 7.87012 13.9512 7.71777 14.0156C7.56543 14.0801 7.43066 14.1709 7.31348 14.2881C7.20215 14.3994 7.11426 14.5312 7.0498 14.6836C6.98535 14.8359 6.95312 15 6.95312 15.1758C6.95312 15.3516 6.98535 15.5186 7.0498 15.6768C7.11426 15.8291 7.20215 15.9639 7.31348 16.0811C7.43066 16.1924 7.56543 16.2803 7.71777 16.3447C7.87012 16.4092 8.03418 16.4414 8.20996 16.4414H10.7324C11.2539 16.4414 11.7432 16.541 12.2002 16.7402C12.6631 16.9336 13.0645 17.2031 13.4043 17.5488C13.75 17.8887 14.0195 18.29 14.2129 18.7529C14.4121 19.21 14.5117 19.6992 14.5117 20.2207C14.5117 20.7422 14.4121 21.2314 14.2129 21.6885C14.0195 22.1455 13.75 22.5469 13.4043 22.8926C13.0645 23.2324 12.6631 23.502 12.2002 23.7012C11.7432 23.9004 11.2539 24 10.7324 24H5.13379V21.4775H10.7324C10.9082 21.4775 11.0723 21.4453 11.2246 21.3809C11.377 21.3164 11.5088 21.2285 11.6201 21.1172C11.7373 21 11.8281 20.8652 11.8926 20.7129C11.957 20.5605 11.9893 20.3965 11.9893 20.2207C11.9893 20.0449 11.957 19.8809 11.8926 19.7285C11.8281 19.5762 11.7373 19.4443 11.6201 19.333C11.5088 19.2158 11.377 19.125 11.2246 19.0605C11.0723 18.9961 10.9082 18.9639 10.7324 18.9639H8.20996C7.68848 18.9639 7.19922 18.8643 6.74219 18.665C6.28516 18.4658 5.88379 18.1963 5.53809 17.8564C5.19824 17.5107 4.92871 17.1094 4.72949 16.6523C4.53027 16.1895 4.43066 15.6973 4.43066 15.1758ZM26.5608 18.9639V16.4414C26.5608 16.0957 26.4934 15.7705 26.3587 15.4658C26.2298 15.1553 26.0511 14.8857 25.8225 14.6572C25.594 14.4287 25.3245 14.25 25.0139 14.1211C24.7093 13.9863 24.3841 13.9189 24.0384 13.9189C23.6927 13.9189 23.3645 13.9863 23.054 14.1211C22.7493 14.25 22.4827 14.4287 22.2542 14.6572C22.0257 14.8857 21.844 15.1553 21.7093 15.4658C21.5804 15.7705 21.5159 16.0957 21.5159 16.4414V18.9639H26.5608ZM29.0833 24H26.5608V21.4775H21.5159V24H19.0022V16.4414C19.0022 15.7441 19.1341 15.0908 19.3977 14.4814C19.6614 13.8662 20.0188 13.3301 20.47 12.873C20.927 12.416 21.4602 12.0557 22.0696 11.792C22.6848 11.5283 23.3411 11.3965 24.0384 11.3965C24.7356 11.3965 25.3889 11.5283 25.9983 11.792C26.6136 12.0557 27.1497 12.416 27.6067 12.873C28.0638 13.3301 28.4241 13.8662 28.6878 14.4814C28.9514 15.0908 29.0833 15.7441 29.0833 16.4414V24Z" fill="black"/>
</svg>
